<svg xmlns="http://www.w3.org/2000/svg" viewBox="0 0 1200 675">
  <rect width="1200" height="675" fill="#eef2ff"/>
  <text x="70" y="88" font-size="42" font-family="Microsoft YaHei, Arial" font-weight="700" fill="#0f172a">履带底盘装配记录</text>
  <text x="70" y="138" font-size="24" font-family="Microsoft YaHei, Arial" fill="#64748b">将此图片替换为真实底盘装配照片</text>
  <rect x="210" y="260" width="780" height="170" rx="38" fill="#2563eb"/>
  <rect x="260" y="460" width="680" height="88" rx="44" fill="#111827"/>
  <g fill="#334155">
    <rect x="285" y="478" width="55" height="18" rx="9"/><rect x="360" y="478" width="55" height="18" rx="9"/><rect x="435" y="478" width="55" height="18" rx="9"/><rect x="510" y="478" width="55" height="18" rx="9"/><rect x="585" y="478" width="55" height="18" rx="9"/><rect x="660" y="478" width="55" height="18" rx="9"/><rect x="735" y="478" width="55" height="18" rx="9"/><rect x="810" y="478" width="55" height="18" rx="9"/>
  </g>
  <g fill="#e2e8f0" stroke="#0f172a" stroke-width="8"><circle cx="350" cy="504" r="34"/><circle cx="500" cy="504" r="34"/><circle cx="650" cy="504" r="34"/><circle cx="800" cy="504" r="34"/></g>
  <rect x="420" y="190" width="360" height="115" rx="28" fill="#38bdf8"/>
  <circle cx="870" cy="318" r="36" fill="#22c55e"/>
  <g font-family="Microsoft YaHei, Arial" font-size="23" fill="#0f172a"><text x="245" y="230">电池/控制板区域</text><text x="750" y="230">电机驱动模块</text><text x="450" y="610">履带张紧度与线束固定是本周重点</text></g>
</svg>
